<?xml version="1.0" encoding="UTF-8" standalone="no"?>
<svg
   width="917pt"
   height="189pt"
   viewBox="0 0 917 189"
   version="1.1"
   id="svg20"
   sodipodi:docname="logo5.svg"
   inkscape:version="1.1.1 (3bf5ae0d25, 2021-09-20)"
   xmlns:inkscape="http://www.inkscape.org/namespaces/inkscape"
   xmlns:sodipodi="http://sodipodi.sourceforge.net/DTD/sodipodi-0.dtd"
   xmlns="http://www.w3.org/2000/svg"
   xmlns:svg="http://www.w3.org/2000/svg">
  <defs
     id="defs24">
    <rect
       x="1031.934"
       y="13.258252"
       width="145.4127"
       height="189.39508"
       id="rect38902" />
  </defs>
  <sodipodi:namedview
     id="namedview22"
     pagecolor="#ffffff"
     bordercolor="#666666"
     borderopacity="1.0"
     inkscape:pageshadow="2"
     inkscape:pageopacity="0.0"
     inkscape:pagecheckerboard="0"
     inkscape:document-units="pt"
     showgrid="false"
     inkscape:zoom="0.90509668"
     inkscape:cx="733.62329"
     inkscape:cy="46.95631"
     inkscape:window-width="1969"
     inkscape:window-height="1281"
     inkscape:window-x="506"
     inkscape:window-y="0"
     inkscape:window-maximized="0"
     inkscape:current-layer="text38900" />
  <g
     id="#2b5691ff">
    <path
       fill="#2b5691"
       opacity="1.00"
       d=" M 715.41 30.46 C 729.69 27.96 744.56 34.27 753.72 45.27 C 776.06 72.21 775.90 116.00 751.81 141.81 C 739.98 154.65 719.76 158.94 704.00 151.03 C 684.05 141.64 674.24 119.00 673.16 97.97 C 671.39 76.34 678.53 52.85 695.82 38.84 C 701.62 34.67 708.18 31.19 715.41 30.46 M 719.40 57.46 C 714.54 58.95 710.05 62.19 708.05 67.01 C 697.59 83.89 698.67 107.39 710.92 123.07 C 714.57 126.83 720.42 130.47 725.66 127.67 C 736.33 122.24 740.15 109.71 741.68 98.69 C 742.45 86.46 740.28 73.32 732.52 63.48 C 729.22 59.85 724.63 56.55 719.40 57.46 Z"
       id="path2" />
    <path
       fill="#2b5691"
       opacity="1.00"
       d=" M 594.94 31.83 C 607.07 30.25 619.72 30.49 631.36 34.63 C 639.50 37.82 646.59 43.01 653.63 48.09 C 648.30 55.72 642.49 62.98 636.89 70.40 C 628.87 63.79 620.53 56.20 609.59 55.48 C 602.12 53.94 590.13 54.51 587.31 63.34 C 585.60 67.34 590.22 69.44 593.02 70.93 C 606.48 78.57 622.93 77.89 636.33 85.66 C 644.09 90.16 650.61 97.69 652.41 106.64 C 653.21 115.00 654.06 123.84 650.84 131.86 C 647.56 140.51 640.35 147.33 631.92 150.94 C 617.67 156.05 602.11 155.71 587.32 153.66 C 573.96 152.00 562.50 143.86 553.17 134.65 C 553.08 133.41 553.45 132.18 554.12 131.14 C 558.08 124.69 562.56 118.56 567.10 112.50 C 573.44 117.67 579.47 123.71 587.32 126.56 C 596.00 130.36 605.81 130.74 615.05 129.13 C 620.07 128.05 625.79 123.95 624.97 118.23 C 619.39 112.37 611.47 109.36 603.56 108.47 C 591.08 107.01 578.24 102.91 569.22 93.78 C 564.49 88.64 560.38 82.53 559.59 75.41 C 558.38 65.94 558.24 55.28 564.33 47.29 C 571.92 38.27 583.59 33.74 594.94 31.83 Z"
       id="path4" />
    <path
       fill="#2b5691"
       opacity="1.00"
       d=" M 153.01 31.98 C 162.00 32.03 171.00 32.03 179.99 31.99 C 180.14 55.34 179.80 78.69 179.98 102.03 C 178.90 116.16 191.87 129.53 206.02 128.92 C 218.60 128.17 230.13 116.81 229.80 103.99 C 230.47 80.00 229.74 55.98 230.01 31.98 C 239.34 32.02 248.67 32.02 258.00 31.99 C 257.95 57.00 258.07 82.01 258.07 107.01 C 258.59 119.75 253.88 132.76 244.81 141.80 C 224.28 161.63 188.20 162.25 167.26 142.71 C 156.99 134.05 152.69 120.12 153.02 107.03 C 152.78 82.01 153.12 56.99 153.01 31.98 Z"
       id="path6" />
    <path
       fill="#2b5691"
       opacity="1.00"
       d=" M 315.09 36.08 C 327.67 30.85 341.76 31.12 355.01 32.92 C 370.75 37.25 384.87 47.79 393.37 61.74 C 384.86 65.06 377.30 72.70 367.72 72.24 C 359.16 66.57 351.24 57.33 339.99 58.14 C 325.32 59.39 311.09 69.57 306.93 83.97 C 305.49 92.56 304.89 102.32 310.20 109.79 C 316.43 118.45 325.20 126.78 336.43 127.57 C 345.27 129.02 354.43 126.14 360.99 120.03 C 365.05 117.45 365.73 112.44 366.59 108.11 C 355.39 108.02 344.19 107.96 332.99 107.99 C 333.00 100.33 333.00 92.67 333.00 85.02 C 352.65 84.97 372.31 84.98 391.96 85.01 C 391.81 98.99 392.65 113.01 391.81 126.97 C 389.62 132.50 385.00 136.73 380.72 140.71 C 362.11 156.68 334.09 159.22 312.15 148.83 C 292.37 140.10 279.96 118.73 279.42 97.44 C 275.69 72.01 291.81 46.06 315.09 36.08 Z"
       id="path8" />
    <path
       fill="#2b5691"
       opacity="1.00"
       d=" M 37.00 33.01 C 68.33 32.99 99.67 32.99 131.01 33.00 C 130.98 41.00 130.99 48.99 131.01 56.98 C 119.67 56.98 108.34 57.02 97.01 57.01 C 96.97 88.68 97.03 120.35 96.99 152.02 C 87.99 151.97 79.00 151.97 70.00 152.01 C 69.97 120.35 70.03 88.68 69.99 57.02 C 58.99 57.04 47.99 56.97 36.98 56.99 C 37.02 48.99 37.01 41.00 37.00 33.01 Z"
       id="path10" />
    <path
       fill="#2b5691"
       opacity="1.00"
       d=" M 456.91 32.96 C 466.38 32.99 475.87 33.01 485.35 33.06 C 471.41 72.76 457.43 112.46 442.92 151.97 C 432.49 151.99 422.06 151.99 411.64 151.92 C 426.32 112.12 441.67 72.55 456.91 32.96 Z"
       id="path12" />
  </g>
  <g
     id="#deedfaff">
    <path
       fill="#deedfa"
       opacity="1.00"
       d=" M 478.59 80.09 C 487.75 80.05 496.92 80.01 506.09 79.97 C 515.53 103.94 525.15 127.84 534.39 151.89 C 524.23 151.97 514.08 152.01 503.93 152.05 C 495.38 128.10 486.90 104.12 478.59 80.09 Z"
       id="path17" />
    <g
       aria-label="3"
       transform="matrix(1.6326191,0,0,1.7245626,-899.52599,-16.69498)"
       id="text38900"
       style="font-weight:bold;font-size:96px;line-height:1.25;-inkscape-font-specification:'sans-serif Bold';letter-spacing:0px;word-spacing:0px;white-space:pre;shape-inside:url(#rect38902);fill:#deedfa">
      <text
         xml:space="preserve"
         style="font-style:normal;font-weight:normal;font-size:99.6816px;line-height:1.25;font-family:sans-serif;letter-spacing:0px;word-spacing:0px;fill:#deedfa;fill-opacity:1;stroke:none;stroke-width:2.49205"
         x="1003.2098"
         y="101.18974"
         id="text2222"
         transform="scale(1.0277726,0.97297787)"><tspan
           sodipodi:role="line"
           id="tspan2220"
           style="font-weight:bold;fill:#deedfa;fill-opacity:1;stroke-width:2.49205"
           x="1003.2098"
           y="101.18974">5</tspan></text>
    </g>
    <text
       xml:space="preserve"
       style="font-style:normal;font-weight:normal;font-size:30px;line-height:1.25;font-family:sans-serif;letter-spacing:0px;word-spacing:0px;fill:#000000;fill-opacity:1;stroke:none;stroke-width:0.75"
       x="957.42188"
       y="101.36719"
       id="text54686"><tspan
         sodipodi:role="line"
         id="tspan54684"
         style="stroke-width:0.75" /></text>
  </g>
</svg>
